# xmcd
#
# Track frame offsets: 
#        300
#        7447
#        26392
#        42464
#        61038
#        86223
#        108759
#        144696
#        164060
#        177860
#        200447
#        252478
#        275353
#
# Disc length: 4022 seconds
#
# Revision: 0
# Processed by: cddbd v1.5.2PL0 Copyright (c) Steve Scherf et al.
# Submitted via: ExactAudioCopyFreeDBPlugin 1.0
#
DISCID=bd0fb20d
DTITLE=Band of Skulls - baby darling doll face honey (10th Anniversary
DTITLE=Edition - CD2 - Live at The Troubadour 11-12-09)
DYEAR=2009
DGENRE=Blues Rock
TTITLE0=Introduction
TTITLE1=Light Of The Morning
TTITLE2=I Know What I Am
TTITLE3=Death By Diamonds And Pearls
TTITLE4=Patterns
TTITLE5=Fires
TTITLE6=Cold Fame
TTITLE7=Friends
TTITLE8=Bomb
TTITLE9=Blood
TTITLE10=Impossible
TTITLE11=Honest
TTITLE12=Hollywood Bowl
EXTD=
EXTT0=
EXTT1=
EXTT2=
EXTT3=
EXTT4=
EXTT5=
EXTT6=
EXTT7=
EXTT8=
EXTT9=
EXTT10=
EXTT11=
EXTT12=
PLAYORDER=
